<?xml version="1.0" standalone="no"?>
<!DOCTYPE svg PUBLIC "-//W3C//DTD SVG 20010904//EN"
 "http://www.w3.org/TR/2001/REC-SVG-20010904/DTD/svg10.dtd">
<svg version="1.0" xmlns="http://www.w3.org/2000/svg"
 width="128.000000pt" height="128.000000pt" viewBox="0 0 2844.000000 2840.000000"
 preserveAspectRatio="xMidYMid meet">

<g transform="translate(0.000000,2840.000000) scale(0.100000,-0.100000)"
fill="#000000" stroke="none">
<path d="M13720 28394 c-644 -29 -1077 -69 -1600 -145 -3374 -493 -6458 -2196
-8695 -4800 -1686 -1963 -2805 -4355 -3229 -6904 -184 -1105 -239 -2261 -161
-3370 154 -2166 791 -4232 1883 -6110 488 -838 1065 -1625 1754 -2391 171
-190 705 -728 908 -914 1482 -1359 3221 -2385 5120 -3020 2775 -930 5809 -983
8600 -151 2908 866 5466 2651 7299 5090 1331 1771 2226 3824 2616 5996 437
2436 233 4963 -587 7275 -896 2526 -2492 4747 -4613 6416 -1430 1125 -3098
1978 -4848 2480 -1033 296 -2020 462 -3172 534 -165 11 -1123 21 -1275 14z
m1150 -1664 c253 -13 541 -36 760 -61 2478 -278 4801 -1296 6731 -2950 486
-417 999 -930 1419 -1419 1613 -1880 2577 -4086 2890 -6609 25 -204 26 -275 2
-320 -24 -49 -57 -69 -132 -81 -96 -15 -6911 -14 -6965 1 -65 18 -108 45 -154
94 -52 57 -76 110 -131 290 -215 716 -564 1360 -1061 1960 -112 135 -507 529
-649 646 -802 665 -1710 1056 -2700 1164 -199 22 -711 31 -930 16 -1220 -82
-2256 -486 -3145 -1225 -157 -131 -484 -458 -615 -615 -311 -375 -568 -777
-763 -1196 -88 -189 -122 -274 -206 -514 -169 -478 -227 -555 -464 -609 -66
-15 -353 -16 -3421 -19 -2975 -3 -3356 -2 -3409 12 -124 32 -162 90 -160 250
1 154 107 772 219 1285 437 1992 1245 3749 2382 5180 509 640 1094 1233 1732
1756 899 736 1920 1354 3099 1875 1498 663 2981 1017 4576 1092 163 8 924 6
1095 -3z m-210 -8865 c1063 -141 1968 -687 2587 -1560 346 -487 575 -1089 650
-1705 21 -178 24 -619 5 -785 -84 -726 -350 -1361 -806 -1929 -165 -206 -427
-457 -654 -629 -843 -639 -1921 -884 -2957 -671 -1004 206 -1908 846 -2440
1730 -418 695 -584 1492 -480 2309 184 1442 1144 2630 2487 3078 282 95 528
144 903 181 101 10 586 -3 705 -19z m-5738 -4748 c63 -20 105 -51 140 -106 29
-46 37 -71 123 -363 80 -274 171 -509 305 -783 513 -1050 1367 -1896 2431
-2409 1477 -712 3212 -701 4670 30 524 262 993 605 1406 1028 626 640 1054
1380 1308 2260 25 87 55 177 66 200 40 79 110 135 189 150 58 11 6990 8 7029
-4 126 -36 136 -101 81 -535 -346 -2741 -1602 -5296 -3570 -7265 -1636 -1635
-3648 -2758 -5896 -3290 -551 -130 -1189 -241 -1724 -299 -554 -61 -832 -76
-1440 -76 -633 0 -925 17 -1480 86 -2181 269 -4215 1145 -6090 2622 -695 548
-1336 1157 -1863 1771 -997 1161 -1763 2521 -2265 4021 -248 740 -455 1607
-571 2391 -62 415 -30 508 188 562 60 15 348 17 3361 22 1812 4 3354 5 3425 4
77 -2 149 -9 177 -17z"/>
<path d="M14031 15999 c-712 -75 -1308 -548 -1530 -1215 -181 -544 -107 -1123
204 -1589 272 -408 676 -678 1166 -777 100 -20 142 -23 349 -23 216 1 245 3
361 28 386 82 668 234 940 506 155 156 253 293 343 481 200 421 228 901 79
1365 -116 361 -354 687 -663 908 -343 244 -808 362 -1249 316z"/>
</g>
</svg>
